# MagicaVoxel @ Ephtracy

# group
o 

# material
mtllib bakhna.mtl
usemtl palette

# normals
vn -1 0 0
vn 1 0 0
vn 0 0 1
vn 0 0 -1
vn 0 -1 0
vn 0 1 0

# texcoords
vt 0.302734 0.5
vt 0.794922 0.5
vt 0.818359 0.5
vt 0.908203 0.5
vt 0.912109 0.5
vt 0.994141 0.5

# verts
v -1.7 2.2 0.7
v -1.7 2.2 -1.8
v -1.7 3.4 0.7
v -1.7 3.4 -1.8
v -1.6 2.2 0.9
v -1.6 2.2 0.7
v -1.6 3.4 0.9
v -1.6 3.4 0.7
v -1.5 2.2 1.2
v -1.5 2.2 0.9
v -1.5 3.4 1.2
v -1.5 3.4 0.9
v -1.4 2.2 1.4
v -1.4 2.2 1.2
v -1.4 3.4 1.4
v -1.4 3.4 1.2
v -1.3 2.2 1.5
v -1.3 2.2 1.4
v -1.3 3.4 1.5
v -1.3 3.4 1.4
v -1.3 3.4 0.3
v -1.3 3.4 -0.5
v -1.3 3.5 0.3
v -1.3 3.5 -0.5
v -1.2 2.1 1.6
v -1.2 2.1 -1.2
v -1.2 2.2 1.5
v -1.2 2.2 -1.2
v -1.2 3.4 1.6
v -1.2 3.4 1.5
v -0.4 3.4 0.3
v -0.4 3.4 -0.5
v -0.4 3.5 0.3
v -0.4 3.5 -0.5
v 0.8 2.1 1.6
v 0.8 2.1 -1.2
v 0.8 2.2 1.5
v 0.8 2.2 -1.2
v 0.8 3.4 1.6
v 0.8 3.4 1.5
v 0.9 2.2 1.5
v 0.9 2.2 1.4
v 0.9 3.4 1.5
v 0.9 3.4 1.4
v 1 2.2 1.4
v 1 2.2 1.2
v 1 3.4 1.4
v 1 3.4 1.2
v 1.1 2.2 1.2
v 1.1 2.2 0.9
v 1.1 3.4 1.2
v 1.1 3.4 0.9
v 1.2 2.2 0.9
v 1.2 2.2 0.7
v 1.2 3.4 0.9
v 1.2 3.4 0.7
v 1.3 2.2 0.7
v 1.3 2.2 -1.8
v 1.3 3.4 0.7
v 1.3 3.4 -1.8
v -1.2 2.1 1.6
v -1.2 3.4 1.6
v 0.8 2.1 1.6
v 0.8 3.4 1.6
v -1.3 2.2 1.5
v -1.3 3.4 1.5
v -1.2 2.2 1.5
v -1.2 3.4 1.5
v 0.8 2.2 1.5
v 0.8 3.4 1.5
v 0.9 2.2 1.5
v 0.9 3.4 1.5
v -1.4 2.2 1.4
v -1.4 3.4 1.4
v -1.3 2.2 1.4
v -1.3 3.4 1.4
v 0.9 2.2 1.4
v 0.9 3.4 1.4
v 1 2.2 1.4
v 1 3.4 1.4
v -1.5 2.2 1.2
v -1.5 3.4 1.2
v -1.4 2.2 1.2
v -1.4 3.4 1.2
v 1 2.2 1.2
v 1 3.4 1.2
v 1.1 2.2 1.2
v 1.1 3.4 1.2
v -1.6 2.2 0.9
v -1.6 3.4 0.9
v -1.5 2.2 0.9
v -1.5 3.4 0.9
v 1.1 2.2 0.9
v 1.1 3.4 0.9
v 1.2 2.2 0.9
v 1.2 3.4 0.9
v -1.7 2.2 0.7
v -1.7 3.4 0.7
v -1.6 2.2 0.7
v -1.6 3.4 0.7
v 1.2 2.2 0.7
v 1.2 3.4 0.7
v 1.3 2.2 0.7
v 1.3 3.4 0.7
v -1.3 3.4 0.3
v -1.3 3.5 0.3
v -0.4 3.4 0.3
v -0.4 3.5 0.3
v -1.3 3.4 -0.5
v -1.3 3.5 -0.5
v -0.4 3.4 -0.5
v -0.4 3.5 -0.5
v -1.2 2.1 -1.2
v -1.2 2.2 -1.2
v 0.8 2.1 -1.2
v 0.8 2.2 -1.2
v -1.7 2.2 -1.8
v -1.7 3.4 -1.8
v -1.3 2.3 -1.8
v -1.3 3.3 -1.8
v -0.6 2.4 -1.8
v -0.6 3.2 -1.8
v -0.5 3.1 -1.8
v -0.5 3.2 -1.8
v -0.4 2.4 -1.8
v -0.4 3.1 -1.8
v -0.3 2.4 -1.8
v -0.3 3.2 -1.8
v -0.2 3.1 -1.8
v -0.2 3.2 -1.8
v -0.0999999 2.4 -1.8
v -0.0999999 3.1 -1.8
v 1.19209e-07 2.4 -1.8
v 1.19209e-07 3.2 -1.8
v 0.1 3.1 -1.8
v 0.1 3.2 -1.8
v 0.2 2.4 -1.8
v 0.2 3.1 -1.8
v 0.9 2.3 -1.8
v 0.9 3.3 -1.8
v 1.3 2.2 -1.8
v 1.3 3.4 -1.8
v -1.2 2.1 1.6
v 0.8 2.1 1.6
v -1.1 2.1 0.6
v 0.7 2.1 0.6
v -1.1 2.1 -1.1
v 0.7 2.1 -1.1
v -1.2 2.1 -1.2
v 0.8 2.1 -1.2
v -1.3 2.2 1.5
v -1.2 2.2 1.5
v 0.8 2.2 1.5
v 0.9 2.2 1.5
v -1.4 2.2 1.4
v -1.3 2.2 1.4
v 0.9 2.2 1.4
v 1 2.2 1.4
v -1.5 2.2 1.2
v -1.4 2.2 1.2
v 1 2.2 1.2
v 1.1 2.2 1.2
v -1.6 2.2 0.9
v -1.5 2.2 0.9
v 1.1 2.2 0.9
v 1.2 2.2 0.9
v -1.7 2.2 0.7
v -1.6 2.2 0.7
v 1.2 2.2 0.7
v 1.3 2.2 0.7
v -1.2 2.2 -1.2
v 0.8 2.2 -1.2
v -1.7 2.2 -1.8
v 1.3 2.2 -1.8
v -1.2 3.4 1.6
v 0.8 3.4 1.6
v -1.3 3.4 1.5
v -1.2 3.4 1.5
v 0.8 3.4 1.5
v 0.9 3.4 1.5
v -1.4 3.4 1.4
v -1.3 3.4 1.4
v 0.9 3.4 1.4
v 1 3.4 1.4
v -1.5 3.4 1.2
v -1.4 3.4 1.2
v 1 3.4 1.2
v 1.1 3.4 1.2
v -1.6 3.4 0.9
v -1.5 3.4 0.9
v 1.1 3.4 0.9
v 1.2 3.4 0.9
v -1.7 3.4 0.7
v -1.6 3.4 0.7
v 1.2 3.4 0.7
v 1.3 3.4 0.7
v -1.3 3.4 0.3
v -0.4 3.4 0.3
v -1.3 3.4 -0.5
v -0.4 3.4 -0.5
v -1.7 3.4 -1.8
v 1.3 3.4 -1.8
v -1.3 3.5 0.3
v -0.4 3.5 0.3
v -1.2 3.5 0.2
v -0.5 3.5 0.2
v -1.2 3.5 -0.4
v -0.5 3.5 -0.4
v -1.3 3.5 -0.5
v -0.4 3.5 -0.5

# faces
f 3/3/1 2/3/1 1/3/1
f 4/3/1 2/3/1 3/3/1
f 7/3/1 6/3/1 5/3/1
f 8/3/1 6/3/1 7/3/1
f 11/3/1 10/3/1 9/3/1
f 12/3/1 10/3/1 11/3/1
f 15/3/1 14/3/1 13/3/1
f 16/3/1 14/3/1 15/3/1
f 19/3/1 18/3/1 17/3/1
f 20/3/1 18/3/1 19/3/1
f 23/5/1 22/5/1 21/5/1
f 24/5/1 22/5/1 23/5/1
f 27/3/1 26/3/1 25/3/1
f 28/3/1 26/3/1 27/3/1
f 29/3/1 27/3/1 25/3/1
f 30/3/1 27/3/1 29/3/1
f 31/5/2 32/5/2 33/5/2
f 33/5/2 32/5/2 34/5/2
f 35/3/2 36/3/2 37/3/2
f 37/3/2 36/3/2 38/3/2
f 35/3/2 37/3/2 39/3/2
f 39/3/2 37/3/2 40/3/2
f 41/3/2 42/3/2 43/3/2
f 43/3/2 42/3/2 44/3/2
f 45/3/2 46/3/2 47/3/2
f 47/3/2 46/3/2 48/3/2
f 49/3/2 50/3/2 51/3/2
f 51/3/2 50/3/2 52/3/2
f 53/3/2 54/3/2 55/3/2
f 55/3/2 54/3/2 56/3/2
f 57/3/2 58/3/2 59/3/2
f 59/3/2 58/3/2 60/3/2
f 63/3/3 62/3/3 61/3/3
f 64/3/3 62/3/3 63/3/3
f 67/3/3 66/3/3 65/3/3
f 68/3/3 66/3/3 67/3/3
f 71/3/3 70/3/3 69/3/3
f 72/3/3 70/3/3 71/3/3
f 75/3/3 74/3/3 73/3/3
f 76/3/3 74/3/3 75/3/3
f 79/3/3 78/3/3 77/3/3
f 80/3/3 78/3/3 79/3/3
f 83/3/3 82/3/3 81/3/3
f 84/3/3 82/3/3 83/3/3
f 87/3/3 86/3/3 85/3/3
f 88/3/3 86/3/3 87/3/3
f 91/3/3 90/3/3 89/3/3
f 92/3/3 90/3/3 91/3/3
f 95/3/3 94/3/3 93/3/3
f 96/3/3 94/3/3 95/3/3
f 99/3/3 98/3/3 97/3/3
f 100/3/3 98/3/3 99/3/3
f 103/3/3 102/3/3 101/3/3
f 104/3/3 102/3/3 103/3/3
f 107/5/3 106/5/3 105/5/3
f 108/5/3 106/5/3 107/5/3
f 109/5/4 110/5/4 111/5/4
f 111/5/4 110/5/4 112/5/4
f 113/3/4 114/3/4 115/3/4
f 115/3/4 114/3/4 116/3/4
f 117/3/4 118/3/4 119/3/4
f 119/3/4 118/3/4 120/3/4
f 119/2/4 120/2/4 121/2/4
f 121/2/4 120/2/4 122/2/4
f 121/1/4 122/1/4 123/1/4
f 122/2/4 120/2/4 124/2/4
f 123/1/4 122/1/4 124/1/4
f 119/2/4 121/2/4 125/2/4
f 121/1/4 123/1/4 125/1/4
f 123/2/4 124/2/4 126/2/4
f 125/1/4 123/1/4 126/1/4
f 119/2/4 125/2/4 127/2/4
f 125/2/4 126/2/4 127/2/4
f 124/2/4 120/2/4 128/2/4
f 127/2/4 126/2/4 128/2/4
f 126/2/4 124/2/4 128/2/4
f 127/1/4 128/1/4 129/1/4
f 128/2/4 120/2/4 130/2/4
f 129/1/4 128/1/4 130/1/4
f 119/2/4 127/2/4 131/2/4
f 127/1/4 129/1/4 131/1/4
f 129/2/4 130/2/4 132/2/4
f 131/1/4 129/1/4 132/1/4
f 119/2/4 131/2/4 133/2/4
f 131/2/4 132/2/4 133/2/4
f 130/2/4 120/2/4 134/2/4
f 133/2/4 132/2/4 134/2/4
f 132/2/4 130/2/4 134/2/4
f 133/1/4 134/1/4 135/1/4
f 134/2/4 120/2/4 136/2/4
f 135/1/4 134/1/4 136/1/4
f 119/2/4 133/2/4 137/2/4
f 133/1/4 135/1/4 137/1/4
f 135/2/4 136/2/4 138/2/4
f 137/1/4 135/1/4 138/1/4
f 117/3/4 119/3/4 139/3/4
f 119/2/4 137/2/4 139/2/4
f 137/2/4 138/2/4 139/2/4
f 138/2/4 136/2/4 140/2/4
f 139/2/4 138/2/4 140/2/4
f 120/3/4 118/3/4 140/3/4
f 136/2/4 120/2/4 140/2/4
f 117/3/4 139/3/4 141/3/4
f 139/3/4 140/3/4 141/3/4
f 140/3/4 118/3/4 142/3/4
f 141/3/4 140/3/4 142/3/4
f 145/3/5 144/3/5 143/3/5
f 146/3/5 144/3/5 145/3/5
f 147/3/5 145/3/5 143/3/5
f 147/6/5 146/6/5 145/6/5
f 148/3/5 144/3/5 146/3/5
f 148/6/5 146/6/5 147/6/5
f 149/3/5 147/3/5 143/3/5
f 149/3/5 148/3/5 147/3/5
f 150/3/5 144/3/5 148/3/5
f 150/3/5 148/3/5 149/3/5
f 156/3/5 152/3/5 151/3/5
f 157/3/5 154/3/5 153/3/5
f 160/3/5 156/3/5 155/3/5
f 161/3/5 158/3/5 157/3/5
f 164/3/5 160/3/5 159/3/5
f 165/3/5 162/3/5 161/3/5
f 168/3/5 164/3/5 163/3/5
f 169/3/5 166/3/5 165/3/5
f 171/3/5 168/3/5 167/3/5
f 171/3/5 152/3/5 156/3/5
f 171/3/5 156/3/5 160/3/5
f 171/3/5 164/3/5 168/3/5
f 171/3/5 160/3/5 164/3/5
f 172/3/5 170/3/5 169/3/5
f 172/3/5 169/3/5 165/3/5
f 172/3/5 165/3/5 161/3/5
f 172/3/5 157/3/5 153/3/5
f 172/3/5 161/3/5 157/3/5
f 173/3/5 171/3/5 167/3/5
f 173/3/5 172/3/5 171/3/5
f 174/3/5 170/3/5 172/3/5
f 174/3/5 172/3/5 173/3/5
f 175/3/6 176/3/6 178/3/6
f 178/3/6 176/3/6 179/3/6
f 177/3/6 178/3/6 182/3/6
f 179/3/6 180/3/6 182/3/6
f 178/3/6 179/3/6 182/3/6
f 182/3/6 180/3/6 183/3/6
f 181/3/6 182/3/6 186/3/6
f 183/3/6 184/3/6 186/3/6
f 182/3/6 183/3/6 186/3/6
f 186/3/6 184/3/6 187/3/6
f 185/3/6 186/3/6 190/3/6
f 187/3/6 188/3/6 190/3/6
f 186/3/6 187/3/6 190/3/6
f 190/3/6 188/3/6 191/3/6
f 189/3/6 190/3/6 194/3/6
f 191/3/6 192/3/6 194/3/6
f 190/3/6 191/3/6 194/3/6
f 194/3/6 192/3/6 195/3/6
f 193/3/6 194/3/6 197/3/6
f 195/3/6 196/3/6 197/3/6
f 194/3/6 195/3/6 197/3/6
f 197/3/6 196/3/6 198/3/6
f 193/3/6 197/3/6 199/3/6
f 198/3/6 196/3/6 200/3/6
f 193/3/6 199/3/6 201/3/6
f 199/3/6 200/3/6 201/3/6
f 200/3/6 196/3/6 202/3/6
f 201/3/6 200/3/6 202/3/6
f 203/5/6 204/5/6 205/5/6
f 205/5/6 204/5/6 206/5/6
f 203/5/6 205/5/6 207/5/6
f 205/4/6 206/4/6 207/4/6
f 206/5/6 204/5/6 208/5/6
f 207/4/6 206/4/6 208/4/6
f 203/5/6 207/5/6 209/5/6
f 207/5/6 208/5/6 209/5/6
f 208/5/6 204/5/6 210/5/6
f 209/5/6 208/5/6 210/5/6
