# MagicaVoxel @ Ephtracy

# group
o 

# material
mtllib tonk_stand.mtl
usemtl palette

# normals
vn -1 0 0
vn 1 0 0
vn 0 0 1
vn 0 0 -1
vn 0 -1 0
vn 0 1 0

# texcoords
vt 0.166016 0.5
vt 0.216797 0.5

# verts
v -2 0 1.7
v -2 0 -1.7
v -2 0.5 -0.9
v -2 0.5 -1
v -2 0.7 0.5
v -2 0.7 0.3
v -2 0.8 1
v -2 0.8 0.5
v -2 0.8 0.3
v -2 0.8 0.2
v -2 0.9 1.1
v -2 0.9 1
v -2 0.9 0.9
v -2 0.9 0.3
v -2 1 1.1
v -2 1 0.9
v -2 1 0.2
v -2 1 0.0999999
v -2 1.1 0.3
v -2 1.1 0.2
v -2 1.5 -0.8
v -2 1.5 -0.9
v -2 1.6 -0.7
v -2 1.6 -0.8
v -2 1.7 0.2
v -2 1.7 0.0999999
v -2 1.7 -2.38419e-07
v -2 1.7 -0.6
v -2 1.7 -0.7
v -2 1.8 -0.7
v -2 1.8 -0.8
v -2 1.9 -2.38419e-07
v -2 1.9 -0.1
v -2 1.9 -0.5
v -2 1.9 -0.6
v -2 1.9 -0.7
v -2 1.9 -0.8
v -2 2 0.0999999
v -2 2 -2.38419e-07
v -2 2 -0.4
v -2 2 -0.5
v -2 2 -0.6
v -2 2 -0.7
v -2 2 -0.9
v -2 2 -1
v -2 2.1 -0.1
v -2 2.1 -0.4
v -2 2.1 -0.7
v -2 2.1 -0.8
v -2 2.2 -2.38419e-07
v -2 2.2 -0.3
v -2 2.2 -0.4
v -2 2.2 -0.7
v -2 2.3 -0.2
v -2 2.3 -0.3
v -2 2.3 -0.4
v -2 2.4 -0.1
v -2 2.4 -0.2
v -2 2.5 -0.2
v -2 2.5 -0.3
v -2 2.6 -2.38419e-07
v -2 2.6 -0.1
v -2 2.6 -0.2
v -2 2.6 -0.7
v -2 2.6 -0.8
v -2 2.6 -0.9
v -2 2.7 0.0999999
v -2 2.7 -2.38419e-07
v -2 2.7 -0.1
v -2 2.8 0.2
v -2 2.8 0.0999999
v -2 2.8 -2.38419e-07
v -2 2.9 0.3
v -2 2.9 0.2
v -2 3 0.4
v -2 3 0.3
v -2 3 0.2
v -2 3 0.0999999
v -2 3.1 0.3
v -2 3.1 0.2
v -2 3.2 0.6
v -2 3.2 0.4
v -2 3.2 0.3
v -2 3.3 1
v -2 3.3 0.6
v -2 3.3 0.5
v -2 3.3 0.4
v -2 3.4 1
v -2 3.4 0.5
v -2 3.5 -0.6
v -2 3.5 -0.7
v -2 3.5 -0.8
v -2 3.6 -0.6
v -2 3.6 -0.7
v -2 3.9 2
v -2 3.9 1.7
v -2 3.9 -1.7
v -2 3.9 -2
v -2 4 2
v -2 4 -2
v -1.9 0 1.9
v -1.9 0 1.7
v -1.9 0 -1.7
v -1.9 0 -1.9
v -1.9 3.9 1.9
v -1.9 3.9 1.7
v -1.9 3.9 -1.7
v -1.9 3.9 -1.9
v -1.7 0 2
v -1.7 0 1.9
v -1.7 0 -1.9
v -1.7 0 -2
v -1.7 3.9 2
v -1.7 3.9 1.9
v -1.7 3.9 -1.9
v -1.7 3.9 -2
v 1.8 3.9 1.8
v 1.8 3.9 -1.8
v 1.8 4 1.8
v 1.8 4 -1.8
v -1.8 3.9 1.8
v -1.8 3.9 -1.8
v -1.8 4 1.8
v -1.8 4 -1.8
v 1.7 0 2
v 1.7 0 1.9
v 1.7 0 -1.9
v 1.7 0 -2
v 1.7 3.9 2
v 1.7 3.9 1.9
v 1.7 3.9 -1.9
v 1.7 3.9 -2
v 1.9 0 1.9
v 1.9 0 1.7
v 1.9 0 -1.7
v 1.9 0 -1.9
v 1.9 3.9 1.9
v 1.9 3.9 1.7
v 1.9 3.9 -1.7
v 1.9 3.9 -1.9
v 2 0 1.7
v 2 0 -1.7
v 2 0.8 0.6
v 2 0.8 -0.2
v 2 0.9 0.9
v 2 0.9 0.6
v 2 0.9 0.5
v 2 0.9 -0.1
v 2 0.9 -0.2
v 2 0.9 -0.3
v 2 1 1
v 2 1 0.9
v 2 1 0.8
v 2 1 0.5
v 2 1 -0.1
v 2 1 -0.3
v 2 1 -0.5
v 2 1.1 0.9
v 2 1.1 0.8
v 2 1.1 -0.3
v 2 1.1 -0.4
v 2 1.1 -0.5
v 2 1.1 -0.6
v 2 1.2 1.1
v 2 1.2 1
v 2 1.2 -0.4
v 2 1.2 -0.6
v 2 1.2 -0.7
v 2 1.3 1
v 2 1.3 0.9
v 2 1.4 1.2
v 2 1.4 1.1
v 2 1.4 1
v 2 1.4 -0.6
v 2 1.4 -0.7
v 2 1.4 -0.8
v 2 1.6 1.3
v 2 1.6 1.2
v 2 1.6 1.1
v 2 1.9 -0.7
v 2 1.9 -0.8
v 2 1.9 -0.9
v 2 2.2 1.3
v 2 2.2 1.2
v 2 2.2 1.1
v 2 2.3 -0.7
v 2 2.3 -0.8
v 2 2.3 -0.9
v 2 2.4 1.1
v 2 2.4 1
v 2 2.5 1.2
v 2 2.5 1.1
v 2 2.6 1
v 2 2.6 0.9
v 2 2.7 1.1
v 2 2.7 1
v 2 2.8 0.9
v 2 2.8 0.8
v 2 2.8 -0.6
v 2 2.8 -0.7
v 2 2.9 1
v 2 2.9 0.9
v 2 2.9 -0.7
v 2 2.9 -0.8
v 2 3 0.9
v 2 3 0.8
v 2 3 0.7
v 2 3.1 0.8
v 2 3.1 0.7
v 2 3.1 0.6
v 2 3.1 -0.5
v 2 3.1 -0.6
v 2 3.1 -0.7
v 2 3.2 0.7
v 2 3.2 0.6
v 2 3.2 0.5
v 2 3.3 0.6
v 2 3.3 0.5
v 2 3.3 0.4
v 2 3.3 -0.4
v 2 3.3 -0.5
v 2 3.4 0.5
v 2 3.4 0.4
v 2 3.4 0.3
v 2 3.4 -0.5
v 2 3.4 -0.6
v 2 3.5 0.4
v 2 3.5 0.3
v 2 3.5 -0.4
v 2 3.6 0.3
v 2 3.6 -0.3
v 2 3.6 -0.4
v 2 3.6 -0.5
v 2 3.7 -0.3
v 2 3.7 -0.4
v 2 3.9 2
v 2 3.9 1.7
v 2 3.9 -1.7
v 2 3.9 -2
v 2 4 2
v 2 4 -2
v -2 3.9 2
v -2 4 2
v -1.7 0 2
v -1.7 3.9 2
v -1.1 3.5 2
v -1.1 3.6 2
v -1 3.4 2
v -1 3.5 2
v -0.9 3.5 2
v -0.9 3.6 2
v -0.5 3.3 2
v -0.5 3.4 2
v -0.5 3.5 2
v -0.2 0.5 2
v -0.2 1.4 2
v -0.0999999 0.5 2
v -0.0999999 1.4 2
v -0.0999999 2.5 2
v 2.38419e-07 1.4 2
v 2.38419e-07 2.5 2
v 2.38419e-07 3.3 2
v 0.1 2.5 2
v 0.1 3.3 2
v 0.6 3.2 2
v 0.6 3.3 2
v 0.6 3.4 2
v 1.2 3.2 2
v 1.2 3.3 2
v 1.7 0 2
v 1.7 3.9 2
v 2 3.9 2
v 2 4 2
v -1.9 0 1.9
v -1.9 3.9 1.9
v -1.7 0 1.9
v -1.7 3.9 1.9
v 1.7 0 1.9
v 1.7 3.9 1.9
v 1.9 0 1.9
v 1.9 3.9 1.9
v -2 0 1.7
v -2 3.9 1.7
v -1.9 0 1.7
v -1.9 3.9 1.7
v 1.9 0 1.7
v 1.9 3.9 1.7
v 2 0 1.7
v 2 3.9 1.7
v -1.8 3.9 -1.8
v -1.8 4 -1.8
v 1.8 3.9 -1.8
v 1.8 4 -1.8
v -1.8 3.9 1.8
v -1.8 4 1.8
v 1.8 3.9 1.8
v 1.8 4 1.8
v -2 0 -1.7
v -2 3.9 -1.7
v -1.9 0 -1.7
v -1.9 3.9 -1.7
v 1.9 0 -1.7
v 1.9 3.9 -1.7
v 2 0 -1.7
v 2 3.9 -1.7
v -1.9 0 -1.9
v -1.9 3.9 -1.9
v -1.7 0 -1.9
v -1.7 3.9 -1.9
v 1.7 0 -1.9
v 1.7 3.9 -1.9
v 1.9 0 -1.9
v 1.9 3.9 -1.9
v -2 3.9 -2
v -2 4 -2
v -1.7 0 -2
v -1.7 3.9 -2
v -1.3 0.6 -2
v -1.3 2.3 -2
v -1.2 0.6 -2
v -1.2 2.2 -2
v -1.2 2.3 -2
v -1.2 2.9 -2
v -1.1 2.2 -2
v -1.1 2.8 -2
v -1.1 2.9 -2
v -1.1 3.2 -2
v -1 2.8 -2
v -1 3.1 -2
v -1 3.2 -2
v -1 3.5 -2
v -0.9 3.1 -2
v -0.9 3.4 -2
v -0.9 3.5 -2
v -0.9 3.6 -2
v -0.8 3.4 -2
v -0.8 3.5 -2
v -0.5 3.4 -2
v -0.5 3.5 -2
v -0.4 3.5 -2
v -0.4 3.6 -2
v -0.3 3.2 -2
v -0.3 3.4 -2
v -0.3 3.5 -2
v -0.2 3.1 -2
v -0.2 3.2 -2
v -0.2 3.3 -2
v -0.2 3.4 -2
v -0.0999999 2.9 -2
v -0.0999999 3.1 -2
v -0.0999999 3.2 -2
v -0.0999999 3.3 -2
v 2.38419e-07 2.7 -2
v 2.38419e-07 2.9 -2
v 2.38419e-07 3 -2
v 2.38419e-07 3.2 -2
v 0.1 2.2 -2
v 0.1 2.7 -2
v 0.1 3 -2
v 0.2 1.7 -2
v 0.2 2.2 -2
v 0.2 2.3 -2
v 0.2 2.7 -2
v 0.3 1.3 -2
v 0.3 1.7 -2
v 0.3 1.8 -2
v 0.3 2.3 -2
v 0.4 0.9 -2
v 0.4 1.3 -2
v 0.4 1.8 -2
v 0.5 0.6 -2
v 0.5 0.9 -2
v 0.5 1 -2
v 0.5 1.3 -2
v 0.6 0.5 -2
v 0.6 0.6 -2
v 0.6 1 -2
v 0.6 1.7 -2
v 0.7 0.5 -2
v 0.7 1.7 -2
v 0.7 2.1 -2
v 0.8 1.7 -2
v 0.8 2.1 -2
v 0.8 2.6 -2
v 0.9 2.1 -2
v 0.9 2.5 -2
v 0.9 2.6 -2
v 0.9 3 -2
v 1 2.5 -2
v 1 3 -2
v 1 3.4 -2
v 1.1 3 -2
v 1.1 3.4 -2
v 1.1 3.7 -2
v 1.2 3.4 -2
v 1.2 3.7 -2
v 1.7 0 -2
v 1.7 3.9 -2
v 2 3.9 -2
v 2 4 -2
v -1.7 0 2
v 1.7 0 2
v -1.9 0 1.9
v -1.7 0 1.9
v 1.7 0 1.9
v 1.9 0 1.9
v -2 0 1.7
v -1.9 0 1.7
v 1.9 0 1.7
v 2 0 1.7
v -2 0 -1.7
v -1.9 0 -1.7
v 1.9 0 -1.7
v 2 0 -1.7
v -1.9 0 -1.9
v -1.7 0 -1.9
v 1.7 0 -1.9
v 1.9 0 -1.9
v -1.7 0 -2
v 1.7 0 -2
v -2 3.9 2
v -1.7 3.9 2
v 1.7 3.9 2
v 2 3.9 2
v -1.9 3.9 1.9
v -1.7 3.9 1.9
v 1.7 3.9 1.9
v 1.9 3.9 1.9
v -2 3.9 1.7
v -1.9 3.9 1.7
v 1.9 3.9 1.7
v 2 3.9 1.7
v -2 3.9 -1.7
v -1.9 3.9 -1.7
v 1.9 3.9 -1.7
v 2 3.9 -1.7
v -1.9 3.9 -1.9
v -1.7 3.9 -1.9
v 1.7 3.9 -1.9
v 1.9 3.9 -1.9
v -2 3.9 -2
v -1.7 3.9 -2
v 1.7 3.9 -2
v 2 3.9 -2
v -1.8 3.9 1.8
v 1.8 3.9 1.8
v -1.8 3.9 -1.8
v 1.8 3.9 -1.8
v -2 4 2
v 2 4 2
v -1.8 4 1.8
v 1.8 4 1.8
v -1.8 4 -1.8
v 1.8 4 -1.8
v -2 4 -2
v 2 4 -2

# faces
f 3/1/1 2/1/1 1/1/1
f 4/1/1 2/1/1 3/1/1
f 5/1/1 3/1/1 1/1/1
f 6/1/1 3/1/1 5/1/1
f 7/1/1 5/1/1 1/1/1
f 8/2/1 6/2/1 5/2/1
f 8/1/1 5/1/1 7/1/1
f 9/1/1 3/1/1 6/1/1
f 9/2/1 6/2/1 8/2/1
f 10/1/1 3/1/1 9/1/1
f 11/1/1 7/1/1 1/1/1
f 12/2/1 8/2/1 7/2/1
f 12/1/1 7/1/1 11/1/1
f 12/2/1 9/2/1 8/2/1
f 12/2/1 10/2/1 9/2/1
f 13/2/1 10/2/1 12/2/1
f 14/2/1 10/2/1 13/2/1
f 15/1/1 11/1/1 1/1/1
f 15/2/1 12/2/1 11/2/1
f 15/2/1 13/2/1 12/2/1
f 16/1/1 14/1/1 13/1/1
f 16/2/1 13/2/1 15/2/1
f 17/2/1 10/2/1 14/2/1
f 17/1/1 3/1/1 10/1/1
f 18/1/1 3/1/1 17/1/1
f 19/1/1 14/1/1 16/1/1
f 19/1/1 16/1/1 15/1/1
f 19/2/1 18/2/1 17/2/1
f 19/2/1 17/2/1 14/2/1
f 20/2/1 18/2/1 19/2/1
f 21/1/1 3/1/1 18/1/1
f 22/2/1 4/2/1 3/2/1
f 22/1/1 3/1/1 21/1/1
f 23/1/1 21/1/1 18/1/1
f 24/2/1 22/2/1 21/2/1
f 24/1/1 21/1/1 23/1/1
f 25/2/1 18/2/1 20/2/1
f 25/1/1 20/1/1 19/1/1
f 26/1/1 23/1/1 18/1/1
f 26/2/1 18/2/1 25/2/1
f 27/1/1 23/1/1 26/1/1
f 28/1/1 23/1/1 27/1/1
f 29/2/1 24/2/1 23/2/1
f 29/1/1 23/1/1 28/1/1
f 30/2/1 29/2/1 28/2/1
f 30/2/1 24/2/1 29/2/1
f 31/2/1 22/2/1 24/2/1
f 31/2/1 24/2/1 30/2/1
f 32/1/1 28/1/1 27/1/1
f 32/2/1 27/2/1 26/2/1
f 33/1/1 28/1/1 32/1/1
f 34/1/1 28/1/1 33/1/1
f 35/2/1 30/2/1 28/2/1
f 35/1/1 28/1/1 34/1/1
f 36/1/1 31/1/1 30/1/1
f 36/2/1 30/2/1 35/2/1
f 37/2/1 22/2/1 31/2/1
f 37/1/1 31/1/1 36/1/1
f 38/1/1 26/1/1 25/1/1
f 38/2/1 32/2/1 26/2/1
f 38/2/1 33/2/1 32/2/1
f 39/2/1 33/2/1 38/2/1
f 40/1/1 34/1/1 33/1/1
f 41/2/1 35/2/1 34/2/1
f 41/1/1 34/1/1 40/1/1
f 42/1/1 36/1/1 35/1/1
f 42/2/1 35/2/1 41/2/1
f 43/2/1 37/2/1 36/2/1
f 43/1/1 36/1/1 42/1/1
f 44/2/1 4/2/1 22/2/1
f 44/2/1 37/2/1 43/2/1
f 44/2/1 22/2/1 37/2/1
f 45/1/1 2/1/1 4/1/1
f 45/2/1 4/2/1 44/2/1
f 46/2/1 33/2/1 39/2/1
f 46/1/1 40/1/1 33/1/1
f 47/2/1 44/2/1 43/2/1
f 47/1/1 40/1/1 46/1/1
f 47/2/1 43/2/1 42/2/1
f 47/2/1 41/2/1 40/2/1
f 47/2/1 42/2/1 41/2/1
f 48/2/1 44/2/1 47/2/1
f 49/2/1 44/2/1 48/2/1
f 50/2/1 46/2/1 39/2/1
f 50/1/1 39/1/1 38/1/1
f 50/2/1 47/2/1 46/2/1
f 50/2/1 48/2/1 47/2/1
f 51/2/1 48/2/1 50/2/1
f 52/2/1 48/2/1 51/2/1
f 53/1/1 49/1/1 48/1/1
f 53/2/1 48/2/1 52/2/1
f 54/1/1 51/1/1 50/1/1
f 55/2/1 52/2/1 51/2/1
f 55/1/1 51/1/1 54/1/1
f 56/1/1 53/1/1 52/1/1
f 56/2/1 52/2/1 55/2/1
f 57/1/1 54/1/1 50/1/1
f 58/2/1 55/2/1 54/2/1
f 58/1/1 54/1/1 57/1/1
f 59/2/1 58/2/1 57/2/1
f 59/2/1 55/2/1 58/2/1
f 60/1/1 56/1/1 55/1/1
f 60/2/1 55/2/1 59/2/1
f 61/1/1 50/1/1 38/1/1
f 61/1/1 57/1/1 50/1/1
f 62/2/1 59/2/1 57/2/1
f 62/1/1 57/1/1 61/1/1
f 63/1/1 60/1/1 59/1/1
f 63/2/1 59/2/1 62/2/1
f 64/1/1 53/1/1 56/1/1
f 64/1/1 60/1/1 63/1/1
f 64/1/1 56/1/1 60/1/1
f 64/1/1 49/1/1 53/1/1
f 65/2/1 44/2/1 49/2/1
f 65/1/1 49/1/1 64/1/1
f 66/1/1 45/1/1 44/1/1
f 66/2/1 44/2/1 65/2/1
f 67/1/1 38/1/1 25/1/1
f 67/1/1 61/1/1 38/1/1
f 68/2/1 62/2/1 61/2/1
f 68/1/1 61/1/1 67/1/1
f 69/1/1 64/1/1 63/1/1
f 69/2/1 62/2/1 68/2/1
f 69/1/1 63/1/1 62/1/1
f 70/1/1 25/1/1 19/1/1
f 70/1/1 67/1/1 25/1/1
f 71/2/1 68/2/1 67/2/1
f 71/1/1 67/1/1 70/1/1
f 72/1/1 69/1/1 68/1/1
f 72/2/1 68/2/1 71/2/1
f 73/1/1 70/1/1 19/1/1
f 73/1/1 19/1/1 15/1/1
f 74/2/1 71/2/1 70/2/1
f 74/1/1 70/1/1 73/1/1
f 75/1/1 73/1/1 15/1/1
f 76/2/1 74/2/1 73/2/1
f 76/1/1 73/1/1 75/1/1
f 77/2/1 71/2/1 74/2/1
f 77/2/1 74/2/1 76/2/1
f 78/1/1 72/1/1 71/1/1
f 78/2/1 71/2/1 77/2/1
f 79/2/1 77/2/1 76/2/1
f 79/2/1 76/2/1 75/2/1
f 80/1/1 78/1/1 77/1/1
f 80/2/1 77/2/1 79/2/1
f 81/1/1 75/1/1 15/1/1
f 82/2/1 79/2/1 75/2/1
f 82/1/1 75/1/1 81/1/1
f 83/1/1 80/1/1 79/1/1
f 83/2/1 79/2/1 82/2/1
f 84/1/1 81/1/1 15/1/1
f 85/2/1 82/2/1 81/2/1
f 85/1/1 81/1/1 84/1/1
f 86/2/1 82/2/1 85/2/1
f 87/1/1 83/1/1 82/1/1
f 87/2/1 82/2/1 86/2/1
f 88/1/1 84/1/1 15/1/1
f 88/2/1 86/2/1 85/2/1
f 88/2/1 85/2/1 84/2/1
f 89/1/1 87/1/1 86/1/1
f 89/2/1 86/2/1 88/2/1
f 90/1/1 69/1/1 72/1/1
f 90/1/1 87/1/1 89/1/1
f 90/1/1 89/1/1 88/1/1
f 90/1/1 72/1/1 78/1/1
f 90/1/1 83/1/1 87/1/1
f 90/1/1 78/1/1 80/1/1
f 90/1/1 64/1/1 69/1/1
f 90/1/1 80/1/1 83/1/1
f 91/2/1 65/2/1 64/2/1
f 91/1/1 64/1/1 90/1/1
f 92/1/1 66/1/1 65/1/1
f 92/2/1 65/2/1 91/2/1
f 93/2/1 91/2/1 90/2/1
f 93/1/1 90/1/1 88/1/1
f 94/1/1 92/1/1 91/1/1
f 94/2/1 91/2/1 93/2/1
f 96/1/1 88/1/1 15/1/1
f 96/1/1 15/1/1 1/1/1
f 96/1/1 94/1/1 93/1/1
f 96/1/1 93/1/1 88/1/1
f 97/1/1 92/1/1 94/1/1
f 97/1/1 45/1/1 66/1/1
f 97/1/1 94/1/1 96/1/1
f 97/1/1 2/1/1 45/1/1
f 97/1/1 66/1/1 92/1/1
f 99/1/1 96/1/1 95/1/1
f 99/1/1 98/1/1 97/1/1
f 99/1/1 97/1/1 96/1/1
f 100/1/1 98/1/1 99/1/1
f 105/1/1 102/1/1 101/1/1
f 106/1/1 102/1/1 105/1/1
f 107/1/1 104/1/1 103/1/1
f 108/1/1 104/1/1 107/1/1
f 113/1/1 110/1/1 109/1/1
f 114/1/1 110/1/1 113/1/1
f 115/1/1 112/1/1 111/1/1
f 116/1/1 112/1/1 115/1/1
f 119/1/1 118/1/1 117/1/1
f 120/1/1 118/1/1 119/1/1
f 121/1/2 122/1/2 123/1/2
f 123/1/2 122/1/2 124/1/2
f 125/1/2 126/1/2 129/1/2
f 129/1/2 126/1/2 130/1/2
f 127/1/2 128/1/2 131/1/2
f 131/1/2 128/1/2 132/1/2
f 133/1/2 134/1/2 137/1/2
f 137/1/2 134/1/2 138/1/2
f 135/1/2 136/1/2 139/1/2
f 139/1/2 136/1/2 140/1/2
f 141/1/2 142/1/2 143/1/2
f 143/1/2 142/1/2 144/1/2
f 141/1/2 143/1/2 145/1/2
f 143/2/2 144/2/2 146/2/2
f 145/1/2 143/1/2 146/1/2
f 146/2/2 144/2/2 147/2/2
f 147/2/2 144/2/2 148/2/2
f 144/1/2 142/1/2 149/1/2
f 148/2/2 144/2/2 149/2/2
f 149/1/2 142/1/2 150/1/2
f 141/1/2 145/1/2 151/1/2
f 145/2/2 146/2/2 152/2/2
f 151/1/2 145/1/2 152/1/2
f 146/2/2 147/2/2 152/2/2
f 152/2/2 147/2/2 153/2/2
f 147/1/2 148/1/2 154/1/2
f 153/2/2 147/2/2 154/2/2
f 149/2/2 150/2/2 155/2/2
f 154/1/2 148/1/2 155/1/2
f 148/2/2 149/2/2 155/2/2
f 150/1/2 142/1/2 156/1/2
f 155/2/2 150/2/2 156/2/2
f 156/1/2 142/1/2 157/1/2
f 152/2/2 153/2/2 158/2/2
f 151/2/2 152/2/2 158/2/2
f 154/1/2 155/1/2 159/1/2
f 158/2/2 153/2/2 159/2/2
f 153/1/2 154/1/2 159/1/2
f 155/1/2 156/1/2 159/1/2
f 156/2/2 157/2/2 160/2/2
f 159/1/2 156/1/2 160/1/2
f 160/2/2 157/2/2 161/2/2
f 157/1/2 142/1/2 162/1/2
f 161/2/2 157/2/2 162/2/2
f 162/1/2 142/1/2 163/1/2
f 141/1/2 151/1/2 164/1/2
f 151/2/2 158/2/2 165/2/2
f 164/1/2 151/1/2 165/1/2
f 160/1/2 161/1/2 166/1/2
f 158/1/2 159/1/2 166/1/2
f 159/1/2 160/1/2 166/1/2
f 162/2/2 163/2/2 166/2/2
f 161/2/2 162/2/2 166/2/2
f 163/1/2 142/1/2 167/1/2
f 166/2/2 163/2/2 167/2/2
f 167/1/2 142/1/2 168/1/2
f 165/2/2 158/2/2 169/2/2
f 164/2/2 165/2/2 169/2/2
f 158/1/2 166/1/2 170/1/2
f 169/2/2 158/2/2 170/2/2
f 166/1/2 167/1/2 170/1/2
f 141/1/2 164/1/2 171/1/2
f 164/2/2 169/2/2 172/2/2
f 171/1/2 164/1/2 172/1/2
f 169/1/2 170/1/2 173/1/2
f 172/2/2 169/2/2 173/2/2
f 170/1/2 167/1/2 174/1/2
f 173/1/2 170/1/2 174/1/2
f 167/2/2 168/2/2 174/2/2
f 168/1/2 142/1/2 175/1/2
f 174/2/2 168/2/2 175/2/2
f 175/1/2 142/1/2 176/1/2
f 141/1/2 171/1/2 177/1/2
f 171/2/2 172/2/2 178/2/2
f 177/1/2 171/1/2 178/1/2
f 173/1/2 174/1/2 179/1/2
f 178/2/2 172/2/2 179/2/2
f 172/1/2 173/1/2 179/1/2
f 174/1/2 175/1/2 179/1/2
f 175/2/2 176/2/2 180/2/2
f 179/1/2 175/1/2 180/1/2
f 178/1/2 179/1/2 180/1/2
f 176/1/2 142/1/2 181/1/2
f 180/2/2 176/2/2 181/2/2
f 181/1/2 142/1/2 182/1/2
f 177/2/2 178/2/2 183/2/2
f 141/1/2 177/1/2 183/1/2
f 178/1/2 180/1/2 184/1/2
f 183/2/2 178/2/2 184/2/2
f 180/1/2 181/1/2 184/1/2
f 184/1/2 181/1/2 185/1/2
f 185/1/2 181/1/2 186/1/2
f 181/2/2 182/2/2 187/2/2
f 186/1/2 181/1/2 187/1/2
f 182/1/2 142/1/2 188/1/2
f 187/2/2 182/2/2 188/2/2
f 185/1/2 186/1/2 189/1/2
f 184/2/2 185/2/2 189/2/2
f 189/1/2 186/1/2 190/1/2
f 183/1/2 184/1/2 191/1/2
f 184/2/2 189/2/2 191/2/2
f 189/2/2 190/2/2 191/2/2
f 191/2/2 190/2/2 192/2/2
f 190/1/2 186/1/2 193/1/2
f 192/2/2 190/2/2 193/2/2
f 193/1/2 186/1/2 194/1/2
f 191/1/2 192/1/2 195/1/2
f 192/2/2 193/2/2 195/2/2
f 193/2/2 194/2/2 195/2/2
f 195/2/2 194/2/2 196/2/2
f 194/1/2 186/1/2 197/1/2
f 196/2/2 194/2/2 197/2/2
f 197/1/2 186/1/2 198/1/2
f 198/1/2 186/1/2 199/1/2
f 186/2/2 187/2/2 200/2/2
f 199/1/2 186/1/2 200/1/2
f 195/1/2 196/1/2 201/1/2
f 196/2/2 197/2/2 201/2/2
f 197/2/2 198/2/2 201/2/2
f 201/2/2 198/2/2 202/2/2
f 200/2/2 187/2/2 203/2/2
f 199/2/2 200/2/2 203/2/2
f 187/1/2 188/1/2 204/1/2
f 203/2/2 187/2/2 204/2/2
f 202/2/2 198/2/2 205/2/2
f 201/1/2 202/1/2 205/1/2
f 198/1/2 199/1/2 206/1/2
f 205/2/2 198/2/2 206/2/2
f 206/1/2 199/1/2 207/1/2
f 205/1/2 206/1/2 208/1/2
f 206/2/2 207/2/2 208/2/2
f 207/1/2 199/1/2 209/1/2
f 208/2/2 207/2/2 209/2/2
f 209/1/2 199/1/2 210/1/2
f 210/1/2 199/1/2 211/1/2
f 199/2/2 203/2/2 212/2/2
f 211/1/2 199/1/2 212/1/2
f 203/1/2 204/1/2 213/1/2
f 212/2/2 203/2/2 213/2/2
f 208/1/2 209/1/2 214/1/2
f 209/2/2 210/2/2 214/2/2
f 210/1/2 211/1/2 215/1/2
f 214/2/2 210/2/2 215/2/2
f 215/1/2 211/1/2 216/1/2
f 214/1/2 215/1/2 217/1/2
f 215/2/2 216/2/2 217/2/2
f 216/1/2 211/1/2 218/1/2
f 217/2/2 216/2/2 218/2/2
f 218/1/2 211/1/2 219/1/2
f 219/1/2 211/1/2 220/1/2
f 211/2/2 212/2/2 221/2/2
f 220/1/2 211/1/2 221/1/2
f 217/1/2 218/1/2 222/1/2
f 218/2/2 219/2/2 222/2/2
f 219/1/2 220/1/2 223/1/2
f 222/2/2 219/2/2 223/2/2
f 223/1/2 220/1/2 224/1/2
f 221/2/2 212/2/2 225/2/2
f 220/2/2 221/2/2 225/2/2
f 212/1/2 213/1/2 226/1/2
f 225/2/2 212/2/2 226/2/2
f 223/2/2 224/2/2 227/2/2
f 222/1/2 223/1/2 227/1/2
f 224/1/2 220/1/2 228/1/2
f 227/2/2 224/2/2 228/2/2
f 220/2/2 225/2/2 229/2/2
f 228/1/2 220/1/2 229/1/2
f 227/1/2 228/1/2 230/1/2
f 228/2/2 229/2/2 230/2/2
f 230/2/2 229/2/2 231/2/2
f 229/2/2 225/2/2 232/2/2
f 231/2/2 229/2/2 232/2/2
f 225/1/2 226/1/2 233/1/2
f 232/2/2 225/2/2 233/2/2
f 230/1/2 231/1/2 234/1/2
f 231/2/2 232/2/2 234/2/2
f 232/1/2 233/1/2 235/1/2
f 234/2/2 232/2/2 235/2/2
f 201/1/2 205/1/2 237/1/2
f 141/1/2 183/1/2 237/1/2
f 234/1/2 235/1/2 237/1/2
f 227/1/2 230/1/2 237/1/2
f 230/1/2 234/1/2 237/1/2
f 208/1/2 214/1/2 237/1/2
f 222/1/2 227/1/2 237/1/2
f 214/1/2 217/1/2 237/1/2
f 183/1/2 191/1/2 237/1/2
f 191/1/2 195/1/2 237/1/2
f 205/1/2 208/1/2 237/1/2
f 195/1/2 201/1/2 237/1/2
f 217/1/2 222/1/2 237/1/2
f 235/1/2 233/1/2 238/1/2
f 188/1/2 142/1/2 238/1/2
f 237/1/2 235/1/2 238/1/2
f 226/1/2 213/1/2 238/1/2
f 213/1/2 204/1/2 238/1/2
f 233/1/2 226/1/2 238/1/2
f 204/1/2 188/1/2 238/1/2
f 236/1/2 237/1/2 240/1/2
f 238/1/2 239/1/2 240/1/2
f 237/1/2 238/1/2 240/1/2
f 240/1/2 239/1/2 241/1/2
f 245/1/3 243/1/3 242/1/3
f 246/1/3 245/1/3 244/1/3
f 247/1/3 245/1/3 246/1/3
f 248/1/3 246/1/3 244/1/3
f 249/2/3 247/2/3 246/2/3
f 249/1/3 246/1/3 248/1/3
f 250/2/3 249/2/3 248/2/3
f 250/2/3 247/2/3 249/2/3
f 251/1/3 245/1/3 247/1/3
f 251/2/3 247/2/3 250/2/3
f 252/1/3 248/1/3 244/1/3
f 253/2/3 250/2/3 248/2/3
f 253/1/3 248/1/3 252/1/3
f 254/1/3 251/1/3 250/1/3
f 254/2/3 250/2/3 253/2/3
f 255/1/3 252/1/3 244/1/3
f 256/1/3 252/1/3 255/1/3
f 257/1/3 255/1/3 244/1/3
f 257/2/3 256/2/3 255/2/3
f 258/1/3 252/1/3 256/1/3
f 258/2/3 256/2/3 257/2/3
f 259/1/3 252/1/3 258/1/3
f 260/1/3 258/1/3 257/1/3
f 260/2/3 259/2/3 258/2/3
f 261/1/3 252/1/3 259/1/3
f 261/2/3 259/2/3 260/2/3
f 262/2/3 253/2/3 252/2/3
f 262/1/3 252/1/3 261/1/3
f 263/1/3 261/1/3 260/1/3
f 263/2/3 262/2/3 261/2/3
f 264/2/3 253/2/3 262/2/3
f 264/2/3 262/2/3 263/2/3
f 265/1/3 264/1/3 263/1/3
f 266/2/3 253/2/3 264/2/3
f 266/1/3 264/1/3 265/1/3
f 267/1/3 254/1/3 253/1/3
f 267/2/3 253/2/3 266/2/3
f 268/2/3 266/2/3 265/2/3
f 268/1/3 265/1/3 263/1/3
f 269/1/3 267/1/3 266/1/3
f 269/2/3 266/2/3 268/2/3
f 270/1/3 263/1/3 260/1/3
f 270/1/3 257/1/3 244/1/3
f 270/1/3 269/1/3 268/1/3
f 270/1/3 268/1/3 263/1/3
f 270/1/3 260/1/3 257/1/3
f 271/1/3 243/1/3 245/1/3
f 271/1/3 269/1/3 270/1/3
f 271/1/3 251/1/3 254/1/3
f 271/1/3 254/1/3 267/1/3
f 271/1/3 267/1/3 269/1/3
f 271/1/3 245/1/3 251/1/3
f 272/1/3 243/1/3 271/1/3
f 273/1/3 243/1/3 272/1/3
f 276/1/3 275/1/3 274/1/3
f 277/1/3 275/1/3 276/1/3
f 280/1/3 279/1/3 278/1/3
f 281/1/3 279/1/3 280/1/3
f 284/1/3 283/1/3 282/1/3
f 285/1/3 283/1/3 284/1/3
f 288/1/3 287/1/3 286/1/3
f 289/1/3 287/1/3 288/1/3
f 292/1/3 291/1/3 290/1/3
f 293/1/3 291/1/3 292/1/3
f 294/1/4 295/1/4 296/1/4
f 296/1/4 295/1/4 297/1/4
f 298/1/4 299/1/4 300/1/4
f 300/1/4 299/1/4 301/1/4
f 302/1/4 303/1/4 304/1/4
f 304/1/4 303/1/4 305/1/4
f 306/1/4 307/1/4 308/1/4
f 308/1/4 307/1/4 309/1/4
f 310/1/4 311/1/4 312/1/4
f 312/1/4 311/1/4 313/1/4
f 314/1/4 315/1/4 317/1/4
f 316/1/4 317/1/4 318/1/4
f 318/1/4 317/1/4 319/1/4
f 316/1/4 318/1/4 320/1/4
f 318/2/4 319/2/4 320/2/4
f 320/2/4 319/2/4 321/2/4
f 319/1/4 317/1/4 322/1/4
f 321/2/4 319/2/4 322/2/4
f 322/1/4 317/1/4 323/1/4
f 320/1/4 321/1/4 324/1/4
f 321/2/4 322/2/4 324/2/4
f 322/2/4 323/2/4 324/2/4
f 324/2/4 323/2/4 325/2/4
f 323/1/4 317/1/4 326/1/4
f 325/2/4 323/2/4 326/2/4
f 326/1/4 317/1/4 327/1/4
f 324/1/4 325/1/4 328/1/4
f 325/2/4 326/2/4 328/2/4
f 326/2/4 327/2/4 328/2/4
f 328/2/4 327/2/4 329/2/4
f 327/1/4 317/1/4 330/1/4
f 329/2/4 327/2/4 330/2/4
f 330/1/4 317/1/4 331/1/4
f 328/1/4 329/1/4 332/1/4
f 329/2/4 330/2/4 332/2/4
f 330/2/4 331/2/4 332/2/4
f 332/2/4 331/2/4 333/2/4
f 331/1/4 317/1/4 334/1/4
f 333/2/4 331/2/4 334/2/4
f 334/1/4 317/1/4 335/1/4
f 332/1/4 333/1/4 336/1/4
f 333/2/4 334/2/4 336/2/4
f 334/2/4 335/2/4 336/2/4
f 336/2/4 335/2/4 337/2/4
f 332/1/4 336/1/4 338/1/4
f 336/1/4 337/1/4 338/1/4
f 337/2/4 335/2/4 339/2/4
f 338/1/4 337/1/4 339/1/4
f 338/2/4 339/2/4 340/2/4
f 339/2/4 335/2/4 340/2/4
f 335/1/4 317/1/4 341/1/4
f 340/2/4 335/2/4 341/2/4
f 332/1/4 338/1/4 342/1/4
f 338/2/4 340/2/4 343/2/4
f 342/1/4 338/1/4 343/1/4
f 340/1/4 341/1/4 344/1/4
f 343/2/4 340/2/4 344/2/4
f 332/1/4 342/1/4 345/1/4
f 328/1/4 332/1/4 345/1/4
f 342/2/4 343/2/4 346/2/4
f 345/1/4 342/1/4 346/1/4
f 346/2/4 343/2/4 347/2/4
f 343/1/4 344/1/4 348/1/4
f 347/2/4 343/2/4 348/2/4
f 328/1/4 345/1/4 349/1/4
f 346/2/4 347/2/4 350/2/4
f 349/1/4 345/1/4 350/1/4
f 345/2/4 346/2/4 350/2/4
f 350/2/4 347/2/4 351/2/4
f 347/1/4 348/1/4 352/1/4
f 351/2/4 347/2/4 352/2/4
f 324/1/4 328/1/4 353/1/4
f 328/1/4 349/1/4 353/1/4
f 350/2/4 351/2/4 354/2/4
f 353/1/4 349/1/4 354/1/4
f 349/2/4 350/2/4 354/2/4
f 354/2/4 351/2/4 355/2/4
f 351/1/4 352/1/4 356/1/4
f 355/2/4 351/2/4 356/2/4
f 320/1/4 324/1/4 357/1/4
f 324/1/4 353/1/4 357/1/4
f 354/2/4 355/2/4 358/2/4
f 357/1/4 353/1/4 358/1/4
f 353/2/4 354/2/4 358/2/4
f 355/1/4 356/1/4 359/1/4
f 358/2/4 355/2/4 359/2/4
f 320/1/4 357/1/4 360/1/4
f 357/2/4 358/2/4 361/2/4
f 360/1/4 357/1/4 361/1/4
f 361/2/4 358/2/4 362/2/4
f 358/1/4 359/1/4 363/1/4
f 362/2/4 358/2/4 363/2/4
f 320/1/4 360/1/4 364/1/4
f 361/2/4 362/2/4 365/2/4
f 364/1/4 360/1/4 365/1/4
f 360/2/4 361/2/4 365/2/4
f 365/2/4 362/2/4 366/2/4
f 362/1/4 363/1/4 367/1/4
f 366/2/4 362/2/4 367/2/4
f 320/1/4 364/1/4 368/1/4
f 365/2/4 366/2/4 369/2/4
f 368/1/4 364/1/4 369/1/4
f 364/2/4 365/2/4 369/2/4
f 366/1/4 367/1/4 370/1/4
f 369/2/4 366/2/4 370/2/4
f 316/1/4 320/1/4 371/1/4
f 320/1/4 368/1/4 371/1/4
f 368/2/4 369/2/4 372/2/4
f 371/1/4 368/1/4 372/1/4
f 372/2/4 369/2/4 373/2/4
f 369/1/4 370/1/4 374/1/4
f 373/2/4 369/2/4 374/2/4
f 316/1/4 371/1/4 375/1/4
f 372/2/4 373/2/4 376/2/4
f 375/1/4 371/1/4 376/1/4
f 371/2/4 372/2/4 376/2/4
f 373/1/4 374/1/4 377/1/4
f 376/2/4 373/2/4 377/2/4
f 374/1/4 370/1/4 378/1/4
f 377/1/4 374/1/4 378/1/4
f 316/1/4 375/1/4 379/1/4
f 376/2/4 377/2/4 379/2/4
f 377/2/4 378/2/4 379/2/4
f 375/2/4 376/2/4 379/2/4
f 378/1/4 370/1/4 380/1/4
f 379/2/4 378/2/4 380/2/4
f 370/1/4 367/1/4 381/1/4
f 380/1/4 370/1/4 381/1/4
f 379/1/4 380/1/4 382/1/4
f 380/2/4 381/2/4 382/2/4
f 381/1/4 367/1/4 383/1/4
f 382/2/4 381/2/4 383/2/4
f 367/1/4 363/1/4 384/1/4
f 383/1/4 367/1/4 384/1/4
f 382/1/4 383/1/4 385/1/4
f 383/2/4 384/2/4 385/2/4
f 385/2/4 384/2/4 386/2/4
f 384/1/4 363/1/4 387/1/4
f 386/2/4 384/2/4 387/2/4
f 359/1/4 356/1/4 388/1/4
f 387/1/4 363/1/4 388/1/4
f 363/1/4 359/1/4 388/1/4
f 386/2/4 387/2/4 389/2/4
f 385/1/4 386/1/4 389/1/4
f 387/2/4 388/2/4 389/2/4
f 388/1/4 356/1/4 390/1/4
f 389/2/4 388/2/4 390/2/4
f 356/1/4 352/1/4 391/1/4
f 390/1/4 356/1/4 391/1/4
f 352/1/4 348/1/4 391/1/4
f 348/1/4 344/1/4 391/1/4
f 389/1/4 390/1/4 392/1/4
f 390/2/4 391/2/4 392/2/4
f 391/1/4 344/1/4 393/1/4
f 392/2/4 391/2/4 393/2/4
f 344/1/4 341/1/4 394/1/4
f 393/1/4 344/1/4 394/1/4
f 341/1/4 317/1/4 394/1/4
f 392/1/4 393/1/4 395/1/4
f 393/2/4 394/2/4 395/2/4
f 394/1/4 317/1/4 396/1/4
f 395/2/4 394/2/4 396/2/4
f 392/1/4 395/1/4 397/1/4
f 379/1/4 382/1/4 397/1/4
f 395/1/4 396/1/4 397/1/4
f 382/1/4 385/1/4 397/1/4
f 385/1/4 389/1/4 397/1/4
f 316/1/4 379/1/4 397/1/4
f 389/1/4 392/1/4 397/1/4
f 317/1/4 315/1/4 398/1/4
f 397/1/4 396/1/4 398/1/4
f 396/1/4 317/1/4 398/1/4
f 398/1/4 315/1/4 399/1/4
f 399/1/4 315/1/4 400/1/4
f 404/1/5 402/1/5 401/1/5
f 405/1/5 402/1/5 404/1/5
f 408/1/5 404/1/5 403/1/5
f 408/1/5 406/1/5 405/1/5
f 408/1/5 405/1/5 404/1/5
f 409/1/5 406/1/5 408/1/5
f 411/1/5 408/1/5 407/1/5
f 411/1/5 410/1/5 409/1/5
f 411/1/5 409/1/5 408/1/5
f 412/1/5 410/1/5 411/1/5
f 413/1/5 410/1/5 412/1/5
f 414/1/5 410/1/5 413/1/5
f 415/1/5 413/1/5 412/1/5
f 416/1/5 413/1/5 415/1/5
f 417/1/5 413/1/5 416/1/5
f 418/1/5 413/1/5 417/1/5
f 419/1/5 417/1/5 416/1/5
f 420/1/5 417/1/5 419/1/5
f 425/1/5 422/1/5 421/1/5
f 426/1/5 422/1/5 425/1/5
f 427/1/5 424/1/5 423/1/5
f 428/1/5 424/1/5 427/1/5
f 429/1/5 425/1/5 421/1/5
f 430/1/5 425/1/5 429/1/5
f 431/1/5 424/1/5 428/1/5
f 432/1/5 424/1/5 431/1/5
f 437/1/5 434/1/5 433/1/5
f 440/1/5 436/1/5 435/1/5
f 441/1/5 438/1/5 437/1/5
f 441/1/5 437/1/5 433/1/5
f 442/1/5 438/1/5 441/1/5
f 443/1/5 440/1/5 439/1/5
f 444/1/5 436/1/5 440/1/5
f 444/1/5 440/1/5 443/1/5
f 445/1/6 446/1/6 447/1/6
f 447/1/6 446/1/6 448/1/6
f 449/1/6 450/1/6 451/1/6
f 451/1/6 450/1/6 452/1/6
f 449/1/6 451/1/6 453/1/6
f 452/1/6 450/1/6 454/1/6
f 449/1/6 453/1/6 455/1/6
f 453/1/6 454/1/6 455/1/6
f 454/1/6 450/1/6 456/1/6
f 455/1/6 454/1/6 456/1/6
