# MagicaVoxel @ Ephtracy

# group
o 

# material
mtllib morda.mtl
usemtl palette

# normals
vn -1 0 0
vn 1 0 0
vn 0 0 1
vn 0 0 -1
vn 0 -1 0
vn 0 1 0

# texcoords
vt 0.306641 0.5
vt 0.310547 0.5
vt 0.873047 0.5

# verts
v -1 0.9 -0.6
v -1 0.9 -0.7
v -1 0.9 -1.7
v -1 0.9 -1.8
v -1 1.5 -0.7
v -1 1.5 -1.7
v -1 1.6 -0.6
v -1 1.6 -1.8
v -0.0999999 1.1 1
v -0.0999999 1.1 -0.6
v -0.0999999 1.3 1
v -0.0999999 1.3 -0.6
v 0.1 1.1 1
v 0.1 1.1 -0.6
v 0.1 1.3 1
v 0.1 1.3 -0.6
v 1 0.9 -0.6
v 1 0.9 -0.7
v 1 0.9 -1.7
v 1 0.9 -1.8
v 1 1.5 -0.7
v 1 1.5 -1.7
v 1 1.6 -0.6
v 1 1.6 -1.8
v -0.0999999 1.1 1
v -0.0999999 1.3 1
v 0.1 1.1 1
v 0.1 1.3 1
v -1 0.9 -0.6
v -1 1.6 -0.6
v -0.9 0.9 -0.6
v -0.9 1.5 -0.6
v -0.7 1.3 -0.6
v -0.7 1.4 -0.6
v -0.5 1.2 -0.6
v -0.5 1.3 -0.6
v -0.5 1.4 -0.6
v -0.3 1.2 -0.6
v -0.3 1.3 -0.6
v -0.0999999 1.1 -0.6
v -0.0999999 1.3 -0.6
v 0.1 1.1 -0.6
v 0.1 1.3 -0.6
v 0.3 1.2 -0.6
v 0.3 1.3 -0.6
v 0.5 1.2 -0.6
v 0.5 1.3 -0.6
v 0.5 1.4 -0.6
v 0.7 1.3 -0.6
v 0.7 1.4 -0.6
v 0.9 0.9 -0.6
v 0.9 1.5 -0.6
v 1 0.9 -0.6
v 1 1.6 -0.6
v -1 0.9 -1.8
v -1 1.6 -1.8
v -0.9 0.9 -1.8
v -0.9 1.5 -1.8
v 0.9 0.9 -1.8
v 0.9 1.5 -1.8
v 1 0.9 -1.8
v 1 1.6 -1.8
v -1 0.9 -0.6
v -0.9 0.9 -0.6
v 0.9 0.9 -0.6
v 1 0.9 -0.6
v -1 0.9 -0.7
v -0.9 0.9 -0.7
v 0.9 0.9 -0.7
v 1 0.9 -0.7
v -1 0.9 -1.7
v -0.9 0.9 -1.7
v 0.9 0.9 -1.7
v 1 0.9 -1.7
v -1 0.9 -1.8
v -0.9 0.9 -1.8
v 0.9 0.9 -1.8
v 1 0.9 -1.8
v -0.0999999 1.1 1
v 0.1 1.1 1
v -0.0999999 1.1 -0.6
v 0.1 1.1 -0.6
v -0.0999999 1.3 1
v 0.1 1.3 1
v -0.0999999 1.3 -0.6
v 0.1 1.3 -0.6
v -1 1.6 -0.6
v 1 1.6 -0.6
v -0.9 1.6 -0.7
v 0.9 1.6 -0.7
v -0.9 1.6 -1.7
v 0.9 1.6 -1.7
v -1 1.6 -1.8
v 1 1.6 -1.8

# faces
f 5/2/1 2/2/1 1/2/1
f 5/1/1 3/1/1 2/1/1
f 6/2/1 4/2/1 3/2/1
f 6/1/1 3/1/1 5/1/1
f 7/2/1 5/2/1 1/2/1
f 7/2/1 6/2/1 5/2/1
f 8/2/1 4/2/1 6/2/1
f 8/2/1 6/2/1 7/2/1
f 11/1/1 10/1/1 9/1/1
f 12/1/1 10/1/1 11/1/1
f 13/1/2 14/1/2 15/1/2
f 15/1/2 14/1/2 16/1/2
f 17/2/2 18/2/2 21/2/2
f 18/1/2 19/1/2 21/1/2
f 19/2/2 20/2/2 22/2/2
f 21/1/2 19/1/2 22/1/2
f 17/2/2 21/2/2 23/2/2
f 21/2/2 22/2/2 23/2/2
f 22/2/2 20/2/2 24/2/2
f 23/2/2 22/2/2 24/2/2
f 27/1/3 26/1/3 25/1/3
f 28/1/3 26/1/3 27/1/3
f 31/2/3 30/2/3 29/2/3
f 32/2/3 30/2/3 31/2/3
f 33/1/3 32/1/3 31/1/3
f 34/1/3 32/1/3 33/1/3
f 35/1/3 33/1/3 31/1/3
f 36/3/3 34/3/3 33/3/3
f 36/1/3 33/1/3 35/1/3
f 37/1/3 32/1/3 34/1/3
f 37/3/3 34/3/3 36/3/3
f 38/3/3 36/3/3 35/3/3
f 38/1/3 35/1/3 31/1/3
f 39/1/3 37/1/3 36/1/3
f 39/3/3 36/3/3 38/3/3
f 40/1/3 38/1/3 31/1/3
f 40/1/3 39/1/3 38/1/3
f 41/1/3 37/1/3 39/1/3
f 41/1/3 39/1/3 40/1/3
f 42/1/3 40/1/3 31/1/3
f 43/1/3 37/1/3 41/1/3
f 44/1/3 43/1/3 42/1/3
f 45/1/3 37/1/3 43/1/3
f 45/1/3 43/1/3 44/1/3
f 46/1/3 44/1/3 42/1/3
f 46/3/3 45/3/3 44/3/3
f 47/1/3 37/1/3 45/1/3
f 47/3/3 45/3/3 46/3/3
f 48/1/3 32/1/3 37/1/3
f 48/1/3 37/1/3 47/1/3
f 49/1/3 47/1/3 46/1/3
f 49/3/3 48/3/3 47/3/3
f 50/1/3 32/1/3 48/1/3
f 50/3/3 48/3/3 49/3/3
f 51/1/3 49/1/3 46/1/3
f 51/1/3 42/1/3 31/1/3
f 51/1/3 50/1/3 49/1/3
f 51/1/3 46/1/3 42/1/3
f 52/2/3 30/2/3 32/2/3
f 52/1/3 50/1/3 51/1/3
f 52/1/3 32/1/3 50/1/3
f 53/2/3 52/2/3 51/2/3
f 54/2/3 30/2/3 52/2/3
f 54/2/3 52/2/3 53/2/3
f 55/2/4 56/2/4 57/2/4
f 57/2/4 56/2/4 58/2/4
f 57/1/4 58/1/4 59/1/4
f 58/2/4 56/2/4 60/2/4
f 59/1/4 58/1/4 60/1/4
f 59/2/4 60/2/4 61/2/4
f 60/2/4 56/2/4 62/2/4
f 61/2/4 60/2/4 62/2/4
f 67/2/5 64/2/5 63/2/5
f 68/1/5 65/1/5 64/1/5
f 68/2/5 64/2/5 67/2/5
f 69/2/5 66/2/5 65/2/5
f 69/1/5 65/1/5 68/1/5
f 70/2/5 66/2/5 69/2/5
f 71/1/5 68/1/5 67/1/5
f 71/1/5 69/1/5 68/1/5
f 71/1/5 70/1/5 69/1/5
f 72/1/5 70/1/5 71/1/5
f 73/1/5 70/1/5 72/1/5
f 74/1/5 70/1/5 73/1/5
f 75/2/5 72/2/5 71/2/5
f 76/1/5 73/1/5 72/1/5
f 76/2/5 72/2/5 75/2/5
f 77/2/5 74/2/5 73/2/5
f 77/1/5 73/1/5 76/1/5
f 78/2/5 74/2/5 77/2/5
f 81/1/5 80/1/5 79/1/5
f 82/1/5 80/1/5 81/1/5
f 83/1/6 84/1/6 85/1/6
f 85/1/6 84/1/6 86/1/6
f 87/2/6 88/2/6 89/2/6
f 89/2/6 88/2/6 90/2/6
f 87/2/6 89/2/6 91/2/6
f 89/1/6 90/1/6 91/1/6
f 90/2/6 88/2/6 92/2/6
f 91/1/6 90/1/6 92/1/6
f 87/2/6 91/2/6 93/2/6
f 91/2/6 92/2/6 93/2/6
f 92/2/6 88/2/6 94/2/6
f 93/2/6 92/2/6 94/2/6
